<!-- Generated by IcoMoon.io -->
<svg version="1.1" xmlns="http://www.w3.org/2000/svg" width="118" height="32" viewBox="0 0 118 32">
<title>adenasoft_w</title>
<path fill="#fff" d="M15.177 22.903l-1.589-3.604h-5.55l-1.624 3.604h-2.395l6.782-14.566 6.771 14.566h-2.395zM8.878 17.399h3.904l-1.439-3.201c-0.081-0.207-0.173-0.438-0.253-0.702-0.092-0.265-0.184-0.564-0.265-0.887-0.081 0.311-0.161 0.599-0.242 0.852-0.092 0.265-0.173 0.507-0.265 0.737l-1.439 3.201z"></path>
<path fill="#fff" d="M18.505 22.903v-14.014h3.075c1.992 0 3.397 0.104 4.214 0.299s1.52 0.541 2.142 1.013c0.806 0.622 1.428 1.416 1.842 2.384s0.622 2.073 0.622 3.316c0 1.244-0.207 2.349-0.622 3.305s-1.036 1.75-1.842 2.384c-0.61 0.472-1.313 0.806-2.096 1.013-0.783 0.196-2.004 0.299-3.65 0.299h-3.685zM20.784 20.842h1.911c1.048 0 1.842-0.069 2.372-0.207s0.979-0.38 1.37-0.702c0.53-0.449 0.921-1.013 1.186-1.693 0.265-0.668 0.392-1.451 0.392-2.349s-0.127-1.681-0.392-2.349c-0.265-0.668-0.656-1.232-1.186-1.693-0.392-0.334-0.864-0.564-1.416-0.702s-1.416-0.207-2.591-0.207h-1.635v9.903z"></path>
<path fill="#fff" d="M32.622 22.903v-14.014h7.819v1.934h-5.539v3.512h5.539v2.004h-5.539v4.525h5.539v2.038h-7.819z"></path>
<path fill="#fff" d="M42.663 22.903v-14.566l8.901 8.567c0.242 0.242 0.484 0.495 0.737 0.771s0.507 0.587 0.783 0.933v-9.719h2.107v14.555l-9.085-8.717c-0.242-0.242-0.472-0.484-0.702-0.748s-0.438-0.541-0.645-0.818v9.742h-2.096z"></path>
<path fill="#fff" d="M67.259 22.903l-1.589-3.604h-5.55l-1.624 3.604h-2.395l6.782-14.566 6.782 14.566h-2.407zM60.96 17.399h3.904l-1.439-3.201c-0.081-0.207-0.173-0.438-0.253-0.702-0.092-0.265-0.184-0.564-0.265-0.887-0.081 0.311-0.161 0.599-0.242 0.852-0.092 0.265-0.173 0.507-0.265 0.737l-1.439 3.201z"></path>
<path fill="#fff" d="M69.654 20.543l1.094-0.587c0.207 0.691 0.553 1.221 1.059 1.601s1.105 0.564 1.808 0.564c0.887 0 1.578-0.265 2.073-0.783s0.748-1.244 0.748-2.176c0-0.679-0.173-1.232-0.507-1.681s-1.059-0.967-2.153-1.555c-1.405-0.748-2.349-1.405-2.81-1.969s-0.702-1.255-0.702-2.050c0-0.99 0.334-1.808 1.013-2.43 0.668-0.622 1.543-0.933 2.614-0.933 0.702 0 1.313 0.15 1.831 0.449s0.944 0.737 1.267 1.336l-0.99 0.599c-0.207-0.403-0.495-0.702-0.864-0.921s-0.818-0.311-1.324-0.311c-0.691 0-1.244 0.207-1.647 0.61s-0.61 0.956-0.61 1.647c0 0.979 0.806 1.9 2.43 2.741 0.299 0.15 0.518 0.276 0.668 0.357 1.198 0.656 1.992 1.278 2.395 1.865s0.599 1.347 0.599 2.268c0 1.255-0.368 2.257-1.094 2.994-0.737 0.737-1.727 1.105-2.994 1.105-0.921 0-1.704-0.23-2.361-0.679s-1.175-1.151-1.543-2.061z"></path>
<path fill="#fff" d="M94.422 15.925c0 0.99-0.184 1.923-0.564 2.821-0.38 0.887-0.921 1.681-1.624 2.384-0.725 0.702-1.531 1.232-2.441 1.601s-1.865 0.553-2.867 0.553c-1.013 0-1.969-0.184-2.867-0.553s-1.716-0.898-2.43-1.601c-0.714-0.702-1.255-1.508-1.635-2.384-0.38-0.887-0.564-1.819-0.564-2.81 0-1.002 0.184-1.946 0.564-2.833 0.368-0.887 0.921-1.693 1.635-2.395 0.702-0.691 1.508-1.221 2.407-1.578s1.865-0.541 2.89-0.541c1.036 0 2.004 0.184 2.902 0.541s1.704 0.887 2.407 1.578c0.714 0.702 1.255 1.508 1.635 2.395 0.368 0.875 0.553 1.819 0.553 2.821zM86.915 22.132c0.829 0 1.612-0.15 2.361-0.461 0.737-0.311 1.405-0.748 2.004-1.336 0.576-0.599 1.025-1.267 1.336-2.027s0.461-1.555 0.461-2.384c0-0.841-0.15-1.635-0.461-2.384s-0.748-1.428-1.336-2.027c-0.576-0.587-1.244-1.036-1.992-1.336-0.748-0.311-1.531-0.461-2.372-0.461-0.829 0-1.612 0.15-2.349 0.461s-1.393 0.748-1.992 1.336c-0.587 0.61-1.036 1.278-1.336 2.027-0.311 0.748-0.461 1.543-0.461 2.384s0.15 1.635 0.461 2.384c0.311 0.748 0.76 1.428 1.336 2.027 0.587 0.599 1.244 1.036 1.969 1.347 0.737 0.299 1.531 0.449 2.372 0.449z"></path>
<path fill="#fff" d="M96.852 22.903v-14.014h6.932v1.198h-5.665v4.387h5.458v1.198h-5.458v7.231h-1.267z"></path>
<path fill="#fff" d="M108.759 22.903v-12.816h-3.858v-1.198h8.993v1.198h-3.869v12.816h-1.267z"></path>
</svg>
